<?xml version="1.0" encoding="UTF-8"?>
<svg version="1.1" xmlns="http://www.w3.org/2000/svg" width="50" height="50">
<path d="M0 0 C2.86956485 1.11640131 5.60440572 2.39560267 8.3671875 3.75390625 C11.54053076 5.25582984 14.59845456 6.16851111 18 7 C18.79587556 20.70674572 16.00240548 31.44727812 7 42 C1.36787839 48.01854504 1.36787839 48.01854504 -2 50 C-7.47606209 49.68732362 -11.17100496 46.69796479 -15 43 C-23.71337031 32.06419111 -26.8023215 20.8177592 -26 7 C-25.20335937 6.74605469 -24.40671875 6.49210938 -23.5859375 6.23046875 C-17.00727937 4.12868682 -17.00727937 4.12868682 -10.75 1.25 C-7.0442606 -0.434427 -3.94715012 -0.74602494 0 0 Z M-12.5625 5.375 C-16.00634036 7.04562894 -19.42907112 8.61812156 -23 10 C-23.74499348 21.17490215 -20.24220667 31.41421652 -13 40 C-10.44711035 42.48837619 -7.79762584 44.79172173 -5 47 C4.29332809 42.74055796 9.39858409 35.34797942 13 25.9375 C14.81991262 20.36820218 15.50177682 15.82061112 15 10 C14.18015625 9.66226562 13.3603125 9.32453125 12.515625 8.9765625 C11.43796875 8.53054687 10.3603125 8.08453125 9.25 7.625 C8.18265625 7.18414063 7.1153125 6.74328125 6.015625 6.2890625 C3 5 3 5 0.984375 3.8359375 C-3.92591514 1.76742945 -7.99951478 3.12920642 -12.5625 5.375 Z " fill="#FF69F3" transform="translate(29,0)"/>
<path d="M0 0 C3 0.125 3 0.125 4 1.125 C4.07313567 3.65549402 4.09247527 6.15804837 4.0625 8.6875 C4.05798828 9.39841797 4.05347656 10.10933594 4.04882812 10.84179688 C4.03700864 12.60290013 4.01907263 14.36396036 4 16.125 C1.36 16.125 -1.28 16.125 -4 16.125 C-4.02685095 13.64576199 -4.04676547 11.1668116 -4.0625 8.6875 C-4.07506836 7.62692383 -4.07506836 7.62692383 -4.08789062 6.54492188 C-4.09653588 4.73806441 -4.05220011 2.93112397 -4 1.125 C-3 0.125 -3 0.125 0 0 Z " fill="#FF6AF2" transform="translate(25,15.875)"/>
</svg>
