<?xml version="1.0" encoding="UTF-8"?>
<svg version="1.1" xmlns="http://www.w3.org/2000/svg" width="24" height="24">
<path d="M0 0 C6.6 0 13.2 0 20 0 C20 2.97 20 5.94 20 9 C19.34 9 18.68 9 18 9 C17.67 8.34 17.34 7.68 17 7 C16.29875 7.515625 15.5975 8.03125 14.875 8.5625 C11.33752209 10.33123895 9.75246222 10.06047845 6 9 C5.01 8.34 4.02 7.68 3 7 C2.67 9.31 2.34 11.62 2 14 C5.96 14 9.92 14 14 14 C14 14.66 14 15.32 14 16 C9.38 16 4.76 16 0 16 C0 10.72 0 5.44 0 0 Z M2 2 C6.16575053 5.88519309 6.16575053 5.88519309 11 7 C13.48732954 5.84247651 15.67258405 4.47701397 18 3 C18 2.67 18 2.34 18 2 C12.72 2 7.44 2 2 2 Z " fill="#FF6AF3" transform="translate(2,4)"/>
<path d="M0 0 C2.64 0 5.28 0 8 0 C8 0.99 8 1.98 8 3 C5.36 3 2.72 3 0 3 C0 2.01 0 1.02 0 0 Z " fill="#FF6BF3" transform="translate(16,21)"/>
<path d="M0 0 C1.32 0 2.64 0 4 0 C4 1.32 4 2.64 4 4 C2.68 4 1.36 4 0 4 C0 2.68 0 1.36 0 0 Z " fill="#FF6AF2" transform="translate(18,15)"/>
</svg>
